<svg xmlns="http://www.w3.org/2000/svg" xmlns:xlink="http://www.w3.org/1999/xlink" width="40" height="40" viewBox="0 0 40 40"><defs><style>.a{fill:#58697e;}.b{clip-path:url(#a);}.c{fill:#fff;stroke:rgba(0,0,0,0);stroke-miterlimit:10;}</style><clipPath id="a"><rect class="a" width="40" height="40" rx="12" transform="translate(1326 193)"/></clipPath></defs><g class="b" transform="translate(-1326 -193)"><g transform="translate(1202.397 -28.654)"><path class="c" d="M-9489.4,16698.455c-.075,0-7.534-.006-9.379-.5a3.012,3.012,0,0,1-2.121-2.125,31.3,31.3,0,0,1-.5-5.775,31.282,31.282,0,0,1,.5-5.773,3,3,0,0,1,2.121-2.121c1.845-.5,9.3-.5,9.379-.5s7.529.006,9.375.5a2.987,2.987,0,0,1,2.12,2.121,31.282,31.282,0,0,1,.5,5.773,31.3,31.3,0,0,1-.5,5.775,3,3,0,0,1-2.12,2.125C-9481.866,16698.449-9489.32,16698.455-9489.4,16698.455Zm-2.352-11.947h0v7.092l6.14-3.547-6.14-3.545Z" transform="translate(9633 -16448.4)"/></g></g></svg>