<svg xmlns="http://www.w3.org/2000/svg" width="16" height="16" viewBox="0 0 16 16"><defs><style>.a{fill:red;opacity:0;}.b{fill:#fff;}</style></defs><g transform="translate(-377 -520)"><rect class="a" width="16" height="16" transform="translate(377 520)"/><path class="b" d="M.5,0H6A0,0,0,0,1,6,0V1A0,0,0,0,1,6,1H.5A.5.5,0,0,1,0,.5v0A.5.5,0,0,1,.5,0Z" transform="translate(382.697 524.3)"/><path class="b" d="M.5,0H6A0,0,0,0,1,6,0V1A0,0,0,0,1,6,1H.5A.5.5,0,0,1,0,.5v0A.5.5,0,0,1,.5,0Z" transform="translate(387.697 530.3) rotate(-90)"/><path class="b" d="M.526,0h8.94a0,0,0,0,1,0,0V1.052a0,0,0,0,1,0,0H.526A.526.526,0,0,1,0,.526v0A.526.526,0,0,1,.526,0Z" transform="translate(381.26 530.994) rotate(-45)"/></g></svg>