<svg xmlns="http://www.w3.org/2000/svg" xmlns:xlink="http://www.w3.org/1999/xlink" width="40" height="40" viewBox="0 0 40 40"><defs><style>.a{fill:#58697e;opacity:0;}.b{clip-path:url(#a);}.c{fill:#fff;}</style><clipPath id="a"><rect class="a" width="40" height="40" rx="12" transform="translate(1230 193)"/></clipPath></defs><g class="b" transform="translate(-1230 -193)"><g transform="translate(-70.592 -75.869)"><path class="c" d="M1327.434,283.467a3.368,3.368,0,0,1,1.97.6,3.851,3.851,0,0,1,1.391,3.213c-.009,2.07,0,4.138,0,6.2q-1.136.011-2.268,0c-.034-2.068.043-4.139-.043-6.206a1.553,1.553,0,0,0-1.044-1.564C1327.421,284.97,1327.43,284.219,1327.434,283.467Z" transform="translate(-13.177)"/><g transform="translate(1306.325 283.69)"><path class="c" d="M1306.325,293.82c.034-3.26-.039-6.524.042-9.782.757.023,1.511.014,2.266.023-.027,1.216.014,2.437-.029,3.654a3.013,3.013,0,0,1,4.158.039,3.905,3.905,0,0,1-.16,5.581,2.849,2.849,0,0,1-3.983-.19c.005.173.009.519.014.69C1307.864,293.843,1307.093,293.851,1306.325,293.82Zm3.11-4.732a1.539,1.539,0,0,0-.086,2.752,1.495,1.495,0,1,0,.086-2.752Z" transform="translate(-1306.325 -284.038)"/></g><g transform="translate(1318.842 286.327)"><path class="c" d="M1342.5,291.551a4.433,4.433,0,0,1,4.222.87,3.573,3.573,0,0,1-.273,5.278c-1.922,1.456-5.328.982-6.26-1.413A3.543,3.543,0,0,1,1342.5,291.551Zm.878,1.959a1.54,1.54,0,0,0-.251,2.76,1.493,1.493,0,1,0,.251-2.76Z" transform="translate(-1339.933 -291.362)"/></g><g transform="translate(1327.395 286.079)"><path class="c" d="M1364.373,291.9a2.824,2.824,0,0,1,3.73.315c0-.157,0-.471,0-.628q1.142-.01,2.289,0c0,2.154.005,4.309,0,6.463a3.881,3.881,0,0,1-1.388,3.127,4.5,4.5,0,0,1-2.967.664c0-.7,0-1.406,0-2.109a2.34,2.34,0,0,0,1.582-.4,2.57,2.57,0,0,0,.514-1.754,3.127,3.127,0,0,1-4.206.027A3.845,3.845,0,0,1,1364.373,291.9Zm1.787,1.575a1.547,1.547,0,0,0-.175,2.728,1.5,1.5,0,1,0,.175-2.728Z" transform="translate(-1362.858 -291.351)"/></g></g></g></svg>