<svg xmlns="http://www.w3.org/2000/svg" xmlns:xlink="http://www.w3.org/1999/xlink" width="40" height="40" viewBox="0 0 40 40"><defs><style>.a{fill:#58697e;}.b{clip-path:url(#a);}.c{fill:#fff;}</style><clipPath id="a"><rect class="a" width="40" height="40" rx="12" transform="translate(1278 193)"/></clipPath></defs><g class="b" transform="translate(-1278 -193)"><g transform="translate(1167.337 -99.623)"><path class="c" d="M135.313,301.624h-9.3a6.35,6.35,0,0,0-6.35,6.35v9.3a6.35,6.35,0,0,0,6.35,6.349h9.3a6.35,6.35,0,0,0,6.35-6.349v-9.3a6.35,6.35,0,0,0-6.35-6.35m4.324,15.814a4.215,4.215,0,0,1-4.216,4.215H125.9a4.215,4.215,0,0,1-4.215-4.215V307.92A4.215,4.215,0,0,1,125.9,303.7h9.518a4.215,4.215,0,0,1,4.216,4.215Z"/><path class="c" d="M138.6,315.353a5.35,5.35,0,1,0,5.35,5.349,5.35,5.35,0,0,0-5.35-5.349m0,8.817a3.468,3.468,0,1,1,3.468-3.468,3.468,3.468,0,0,1-3.468,3.468" transform="translate(-7.937 -8.02)"/><path class="c" d="M161.06,311.381a1.42,1.42,0,1,0,1.42,1.42,1.419,1.419,0,0,0-1.42-1.42" transform="translate(-24.553 -5.993)"/></g></g></svg>