<svg id="k" xmlns="http://www.w3.org/2000/svg" width="40" height="40" viewBox="0 0 40 40">
  <rect id="사각형_516" data-name="사각형 516" width="40" height="40" rx="12" fill="#58697e"/>
  <g id="i" transform="translate(-113.129 -285.169)">
    <path id="패스_2990" data-name="패스 2990" d="M49.087,35.421c-6.4,0-11.583,4.8-11.583,10.714,0,4.37,1.83,6.456,4.337,8.358l.012.006v5.128a.294.294,0,0,0,.47.236L46.715,56.6l.095.041a12.561,12.561,0,0,0,2.277.207c6.4,0,11.582-4.8,11.582-10.714S55.484,35.421,49.087,35.421M45.2,48.849a2.42,2.42,0,0,0,2.4-1.729h1.679A4.018,4.018,0,0,1,45.2,50.465a4.343,4.343,0,1,1,0-8.685,4.023,4.023,0,0,1,4.09,3.407H47.62A2.389,2.389,0,0,0,45.2,43.373a2.622,2.622,0,0,0-2.726,2.75A2.689,2.689,0,0,0,45.2,48.849M56.27,50.3H54.731V46.827A1.105,1.105,0,0,0,53.55,45.6c-.8,0-1.312.489-1.312,1.479V50.3H50.7V41.807h1.54V45a1.972,1.972,0,0,1,1.777-.835,2.111,2.111,0,0,1,1.61.656,2.476,2.476,0,0,1,.645,1.814Z" transform="translate(84.043 258.498)" fill="#fff"/>
  </g>
</svg>
