<svg xmlns="http://www.w3.org/2000/svg" xmlns:xlink="http://www.w3.org/1999/xlink" width="158" height="132" viewBox="0 0 158 132">
  <defs>
    <linearGradient id="linear-gradient" x1="0.5" x2="0.5" y2="1" gradientUnits="objectBoundingBox">
      <stop offset="0" stop-color="#faffe6"/>
      <stop offset="1" stop-color="#ff80bb"/>
    </linearGradient>
    <linearGradient id="linear-gradient-2" x1="0.5" x2="0.5" y2="1" gradientUnits="objectBoundingBox">
      <stop offset="0" stop-color="#faffe6"/>
      <stop offset="1" stop-color="#ff3693"/>
    </linearGradient>
    <linearGradient id="linear-gradient-3" x1="0.5" x2="0.5" y2="1" gradientUnits="objectBoundingBox">
      <stop offset="0" stop-color="#faffe6"/>
      <stop offset="1" stop-color="#ff2e8f"/>
    </linearGradient>
  </defs>
  <g id="icon_design" transform="translate(-338 -4980)">
    <circle id="타원_32" data-name="타원 32" cx="64" cy="64" r="64" transform="translate(340 4982)" fill="url(#linear-gradient)"/>
    <rect id="area" width="158" height="132" transform="translate(338 4980)" fill="#fff" opacity="0"/>
    <g id="그룹_644" data-name="그룹 644" transform="translate(-515.808 4739.315)">
      <path id="패스_560" data-name="패스 560" d="M906.509,293.812a3.007,3.007,0,0,0,1.5-5.612V275.526a9.375,9.375,0,0,1,2.343-6.151c1.681-1.754,4.216-2.66,7.533-2.689l-.028-3c-4.176.038-7.44,1.265-9.7,3.645a12.321,12.321,0,0,0-3.146,8.277V288.2a3.007,3.007,0,0,0,1.5,5.612Z" transform="translate(2.288)" fill="#fff"/>
      <path id="패스_561" data-name="패스 561" d="M925.811,275.526V288.2a3.03,3.03,0,1,0,3.021,0V275.607a12.252,12.252,0,0,0-3.167-8.277c-2.279-2.38-5.568-3.607-9.773-3.645l-.028,3c3.34.029,5.9.934,7.587,2.689A9.334,9.334,0,0,1,925.811,275.526Z" transform="translate(4.308)" fill="#fff"/>
      <path id="패스_562" data-name="패스 562" d="M948.2,278.7a4.287,4.287,0,0,0-1.67-.336h-11.57v5.874c.083.066.158.142.236.213.093.085.185.17.272.259.049.052.1.107.143.161.08.092.162.183.237.279.047.061.088.124.133.186.069.1.137.192.2.293.043.07.079.142.119.214.056.1.113.2.163.3.037.079.069.163.1.244.043.1.087.2.123.3s.055.184.081.277.063.2.086.3.036.208.055.312.037.192.049.291c.015.133.017.27.023.406,0,.072.012.142.012.214a5.471,5.471,0,1,1-10.942,0c0-.09.01-.177.015-.265.006-.119.007-.237.02-.354s.035-.207.052-.31.029-.2.051-.293.058-.209.089-.313c.027-.088.048-.178.078-.264.038-.107.084-.211.128-.314.032-.078.063-.157.1-.234.05-.1.108-.206.165-.307.038-.07.074-.141.116-.208.063-.1.133-.2.2-.3.044-.062.085-.124.131-.185.076-.1.156-.187.237-.278.048-.055.094-.109.144-.162.086-.09.177-.174.269-.257s.155-.148.238-.215v-5.874H912.233v5.874c.083.066.158.142.237.214s.184.169.27.258c.05.052.1.107.143.161.081.092.163.183.237.279.047.061.089.123.133.185.069.1.138.194.2.3.042.067.078.14.116.209.057.1.115.2.165.306.036.077.066.157.1.236.043.1.088.206.126.312.03.086.052.176.078.264.03.1.065.206.089.313s.034.2.051.293.04.2.051.31.015.235.021.354c0,.088.015.176.015.265a5.471,5.471,0,1,1-10.942,0c0-.072.009-.142.012-.214.006-.136.008-.273.023-.406.012-.1.033-.193.049-.291s.031-.209.055-.312.056-.2.085-.3.05-.187.081-.277.081-.2.123-.3c.035-.081.065-.165.1-.244.049-.1.106-.2.162-.3.04-.072.077-.144.12-.214.062-.1.131-.2.2-.293.044-.062.086-.126.133-.186.074-.1.156-.187.237-.278.048-.055.093-.109.143-.162.086-.09.178-.174.27-.258s.155-.147.239-.214v-5.874H893.789a4.282,4.282,0,0,0-4.287,4.286v59.781a4.289,4.289,0,0,0,4.288,4.288h52.737a4.289,4.289,0,0,0,4.288-4.288V282.648A4.29,4.29,0,0,0,948.2,278.7Z" transform="translate(0 2.398)" fill="url(#linear-gradient-2)"/>
    </g>
    <g id="그룹_643" data-name="그룹 643" transform="translate(-654.965 4733.551)">
      <rect id="사각형_636" data-name="사각형 636" width="60" height="41" rx="6" transform="translate(1070.965 322.449)" fill="url(#linear-gradient-3)"/>
      <rect id="사각형_637" data-name="사각형 637" width="60" height="6" transform="translate(1070.965 331.449)" fill="#fffdf1"/>
    </g>
  </g>
</svg>
