<svg xmlns="http://www.w3.org/2000/svg" xmlns:xlink="http://www.w3.org/1999/xlink" width="158" height="132" viewBox="0 0 158 132">
  <defs>
    <linearGradient id="linear-gradient" x1="0.5" x2="0.5" y2="1" gradientUnits="objectBoundingBox">
      <stop offset="0" stop-color="#deff71"/>
      <stop offset="1" stop-color="#00d933"/>
    </linearGradient>
    <linearGradient id="linear-gradient-2" x1="0.5" x2="0.5" y2="1" gradientUnits="objectBoundingBox">
      <stop offset="0" stop-color="#deff71"/>
      <stop offset="1" stop-color="#0cc906"/>
    </linearGradient>
    <linearGradient id="linear-gradient-4" x1="0.793" y1="0.806" x2="-0.154" y2="0.243" xlink:href="#linear-gradient"/>
  </defs>
  <g id="icon_setting" transform="translate(-173 -4680)">
    <circle id="타원_32" data-name="타원 32" cx="64" cy="64" r="64" transform="translate(173 4682)" fill="url(#linear-gradient)"/>
    <g id="그룹_242" data-name="그룹 242" transform="translate(2 1)">
      <path id="사각형_310" data-name="사각형 310" d="M0,0H86a0,0,0,0,1,0,0V40a6,6,0,0,1-6,6H6a6,6,0,0,1-6-6V0A0,0,0,0,1,0,0Z" transform="translate(192 4728)" fill="url(#linear-gradient-2)"/>
      <path id="사각형_311" data-name="사각형 311" d="M6,0H80a6,6,0,0,1,6,6v4a0,0,0,0,1,0,0H0a0,0,0,0,1,0,0V6A6,6,0,0,1,6,0Z" transform="translate(192 4718)" fill="#fff"/>
      <circle id="타원_57" data-name="타원 57" cx="2" cy="2" r="2" transform="translate(198 4721)" fill="#00cc90"/>
      <circle id="타원_58" data-name="타원 58" cx="2" cy="2" r="2" transform="translate(205 4721)" fill="#00cc90"/>
      <circle id="타원_59" data-name="타원 59" cx="2" cy="2" r="2" transform="translate(212 4721)" fill="#00cc90"/>
    </g>
    <g id="그룹_243" data-name="그룹 243" transform="translate(234 4753.5)">
      <path id="패스_75" data-name="패스 75" d="M-389.266,431.469a16.151,16.151,0,0,1,5.375-3.569,16.2,16.2,0,0,1,6.114-1.19,16.2,16.2,0,0,1,6.114,1.19,16.151,16.151,0,0,1,5.376,3.569,16.146,16.146,0,0,1,3.569,5.375,16.191,16.191,0,0,1,1.19,6.114,16.192,16.192,0,0,1-1.19,6.114,16.15,16.15,0,0,1-3.569,5.375,16.147,16.147,0,0,1-5.375,3.569,16.2,16.2,0,0,1-6.114,1.19,16.187,16.187,0,0,1-6.114-1.19,16.146,16.146,0,0,1-5.375-3.569,16.146,16.146,0,0,1-3.569-5.376,16.192,16.192,0,0,1-1.19-6.114,16.2,16.2,0,0,1,1.19-6.114A16.152,16.152,0,0,1-389.266,431.469Zm-.211,12.708a1.22,1.22,0,0,0,1.219-1.219,10.493,10.493,0,0,1,10.481-10.481,1.22,1.22,0,0,0,1.219-1.219,1.22,1.22,0,0,0-1.219-1.219,12.854,12.854,0,0,0-5.031,1.015,12.863,12.863,0,0,0-4.106,2.767,12.864,12.864,0,0,0-2.767,4.106,12.855,12.855,0,0,0-1.015,5.031A1.22,1.22,0,0,0-389.477,444.178Z" transform="translate(397.313 -423.423)" fill="#fff"/>
      <path id="패스_76" data-name="패스 76" d="M144.98,549.044a12.883,12.883,0,0,1,9.137-3.782,1.219,1.219,0,1,1,0,2.438,10.493,10.493,0,0,0-10.481,10.482,1.219,1.219,0,0,1-2.438,0,12.883,12.883,0,0,1,3.782-9.138Z" transform="translate(-134.582 -538.646)" fill="#54e6c0"/>
      <path id="패스_77" data-name="패스 77" d="M-394.469,1465.641l1.66,1.66a4.133,4.133,0,0,0-.991.733,4.133,4.133,0,0,0-.733.991l-1.66-1.66q.455-.4.888-.835T-394.469,1465.641Z" transform="translate(428.654 -1433.18)" fill="#fff"/>
      <path id="패스_79" data-name="패스 79" d="M-1042.974,1555.264h0l11.529,11.529-5.823,5.823-11.529-11.529h0l-1.95-1.95,5.823-5.823Z" transform="translate(1085.67 -1518.391)" fill="url(#linear-gradient)"/>
      <path id="패스_80" data-name="패스 80" d="M-567.376,1509.545l-1.165-1.165a4.092,4.092,0,0,1,1.919-.473h0a4.089,4.089,0,0,1,2.911,1.206l.069.069-5.823,5.823-.069-.069a4.091,4.091,0,0,1-1.206-2.912,4.1,4.1,0,0,1,.473-1.921l1.165,1.165Z" transform="translate(604.386 -1474.26)" fill="#fff"/>
      <path id="패스_81" data-name="패스 81" d="M-435.947,1524.755l1.165,1.165-1.724,1.724-1.165-1.164a4.126,4.126,0,0,1,.733-.991A4.133,4.133,0,0,1-435.947,1524.755Z" transform="translate(471.793 -1490.634)" fill="#fff"/>
      <path id="패스_82" data-name="패스 82" d="M-509.554,321.581a19.47,19.47,0,0,1,4.186-6.209,19.469,19.469,0,0,1,6.209-4.186,19.414,19.414,0,0,1,7.6-1.536,19.414,19.414,0,0,1,7.6,1.536,19.469,19.469,0,0,1,6.209,4.186,19.469,19.469,0,0,1,4.186,6.209,19.413,19.413,0,0,1,1.536,7.6,19.413,19.413,0,0,1-1.536,7.6,19.436,19.436,0,0,1-3.351,5.321l-1.255-1.255-1.724,1.724,1.255,1.255a19.436,19.436,0,0,1-5.321,3.351,19.415,19.415,0,0,1-7.6,1.536,19.415,19.415,0,0,1-7.6-1.536A19.47,19.47,0,0,1-505.367,343a19.471,19.471,0,0,1-4.186-6.209,19.415,19.415,0,0,1-1.535-7.6A19.414,19.414,0,0,1-509.554,321.581Zm2.942,13.718a16.147,16.147,0,0,0,3.569,5.376,16.146,16.146,0,0,0,5.375,3.569,16.188,16.188,0,0,0,6.114,1.19,16.2,16.2,0,0,0,6.114-1.19,16.147,16.147,0,0,0,5.375-3.57,16.15,16.15,0,0,0,3.569-5.375,16.192,16.192,0,0,0,1.19-6.114,16.192,16.192,0,0,0-1.19-6.114,16.145,16.145,0,0,0-3.569-5.375,16.15,16.15,0,0,0-5.376-3.569,16.2,16.2,0,0,0-6.114-1.19,16.2,16.2,0,0,0-6.114,1.19,16.15,16.15,0,0,0-5.375,3.569,16.152,16.152,0,0,0-3.569,5.375,16.2,16.2,0,0,0-1.19,6.114A16.193,16.193,0,0,0-506.612,335.3Z" transform="translate(511.089 -309.65)" fill="url(#linear-gradient-4)"/>
      <path id="패스_83" data-name="패스 83" d="M-335.355,1420.934l1.255,1.255q-.4.455-.836.889t-.888.835l-1.255-1.255Z" transform="translate(368.285 -1389.729)" fill="#fff"/>
    </g>
    <rect id="area" width="158" height="132" transform="translate(173 4680)" fill="#fff" opacity="0"/>
  </g>
</svg>
