<svg xmlns="http://www.w3.org/2000/svg" xmlns:xlink="http://www.w3.org/1999/xlink" width="158" height="132" viewBox="0 0 158 132">
  <defs>
    <linearGradient id="linear-gradient" x1="0.5" x2="0.5" y2="1" gradientUnits="objectBoundingBox">
      <stop offset="0" stop-color="#ffc2f9"/>
      <stop offset="1" stop-color="#5f5aff"/>
    </linearGradient>
    <clipPath id="clip-path">
      <rect id="사각형_315" data-name="사각형 315" width="82" height="34" rx="3" transform="translate(399 5045)" fill="#7a838e"/>
    </clipPath>
  </defs>
  <g id="icon_design" transform="translate(-338 -4980)">
    <circle id="타원_32" data-name="타원 32" cx="64" cy="64" r="64" transform="translate(340 4982)" fill="url(#linear-gradient)"/>
    <g id="그룹_244" data-name="그룹 244">
      <rect id="사각형_312" data-name="사각형 312" width="112" height="20" rx="3" transform="translate(369 5017)" fill="url(#linear-gradient)"/>
      <rect id="사각형_313" data-name="사각형 313" width="26" height="34" rx="3" transform="translate(369 5045)" fill="url(#linear-gradient)"/>
      <rect id="사각형_314" data-name="사각형 314" width="82" height="34" rx="3" transform="translate(399 5045)" fill="url(#linear-gradient)"/>
      <path id="패스_84" data-name="패스 84" d="M-10,0H67" transform="translate(396.5 5029.5)" fill="none" stroke="#f3baf9" stroke-linecap="round" stroke-width="3"/>
      <path id="패스_85" data-name="패스 85" d="M-10,0H4.833" transform="translate(384.5 5053.5)" fill="none" stroke="#fcdcff" stroke-linecap="round" stroke-width="3"/>
      <path id="패스_86" data-name="패스 86" d="M-10,0H4.833" transform="translate(384.5 5059.5)" fill="none" stroke="#fcdcff" stroke-linecap="round" stroke-width="3"/>
      <path id="패스_87" data-name="패스 87" d="M-10,0H4.833" transform="translate(384.5 5065.5)" fill="none" stroke="#fcdcff" stroke-linecap="round" stroke-width="3"/>
    </g>
    <g id="마스크_그룹_47" data-name="마스크 그룹 47" clip-path="url(#clip-path)">
      <path id="다각형_13" data-name="다각형 13" d="M23.708,1.336a3,3,0,0,1,3.585,0L43.745,13.594A3,3,0,0,1,41.953,19H9.047a3,3,0,0,1-1.792-5.406Z" transform="translate(394 5065)" fill="#fff"/>
      <path id="다각형_14" data-name="다각형 14" d="M34.079,1.6a3,3,0,0,1,3.841,0L65.634,24.7A3,3,0,0,1,63.714,30H8.286a3,3,0,0,1-1.921-5.3Z" transform="translate(414 5054)" fill="#fff"/>
      <circle id="타원_60" data-name="타원 60" cx="3.5" cy="3.5" r="3.5" transform="translate(424 5054)" fill="#fff"/>
    </g>
    <rect id="area" width="158" height="132" transform="translate(338 4980)" fill="#fff" opacity="0"/>
  </g>
</svg>
