<svg xmlns="http://www.w3.org/2000/svg" xmlns:xlink="http://www.w3.org/1999/xlink" width="158" height="132" viewBox="0 0 158 132">
  <defs>
    <linearGradient id="linear-gradient" x1="0.5" x2="0.5" y2="1" gradientUnits="objectBoundingBox">
      <stop offset="0" stop-color="#fff129"/>
      <stop offset="1" stop-color="#ff7171"/>
    </linearGradient>
  </defs>
  <g id="icon_user" transform="translate(-763 -4984)">
    <circle id="타원_32" data-name="타원 32" cx="64" cy="64" r="64" transform="translate(765 4986)" fill="url(#linear-gradient)"/>
    <g id="그룹_236" data-name="그룹 236" transform="translate(785.361 5020.426)">
      <g id="그룹_226" data-name="그룹 226" transform="translate(0 1.789)">
        <path id="패스_60" data-name="패스 60" d="M1423.113,622.388q-.128.368-.282.722l0,.011a.2.2,0,0,1-.146.119,54.955,54.955,0,0,1-19.717-.008.2.2,0,0,1-.146-.12h0q-.134-.308-.248-.626a3.768,3.768,0,0,1,.777-2.04,10.85,10.85,0,0,1,3.733-2.253,11.722,11.722,0,0,0,1.848-1.012,1.5,1.5,0,0,0,.6-1.18,2.7,2.7,0,0,0-.151-1.023c-.748-.2-1.075-1.095-1.3-1.907-.244-.9-.41-1.635.1-2.254a8.839,8.839,0,0,1-.307-1.74,4.361,4.361,0,0,1,4.7-4.822.717.717,0,0,1,.6.332,4.656,4.656,0,0,1,3.411,1.567,5.6,5.6,0,0,1,.971,1.745,3.293,3.293,0,0,1,.179,1.155c0,.488-.084.961-.091,1.481.812,1.045.235,2.811-.591,3.789a2.391,2.391,0,0,1-.618.4,3.3,3.3,0,0,0-.113,1.29,1.952,1.952,0,0,0,.11.622c.444.91,2.066,1.281,2.9,1.694,1.327.656,3.05,1.51,3.591,2.984a2.137,2.137,0,0,1,.158.618C1423.1,622.062,1423.107,622.218,1423.113,622.388Z" transform="translate(-1402.568 -604.247)" fill="#fff"/>
      </g>
      <rect id="사각형_308" data-name="사각형 308" width="90.758" height="21.668" rx="10.834" transform="translate(30.38 0)" fill="url(#linear-gradient)"/>
      <g id="그룹_227" data-name="그룹 227" transform="translate(45.891 7.036)">
        <circle id="타원_51" data-name="타원 51" cx="2.686" cy="2.686" r="2.686" transform="translate(52.141 3.798) rotate(-45)" fill="#fff"/>
        <ellipse id="타원_52" data-name="타원 52" cx="2.686" cy="2.686" rx="2.686" ry="2.686" transform="translate(42.166 5.795) rotate(-76.717)" fill="#fff"/>
        <ellipse id="타원_53" data-name="타원 53" cx="2.686" cy="2.686" rx="2.686" ry="2.686" transform="translate(31.625 5.795) rotate(-76.717)" fill="#fff"/>
        <ellipse id="타원_54" data-name="타원 54" cx="2.686" cy="2.686" rx="2.686" ry="2.686" transform="translate(21.083 5.795) rotate(-76.717)" fill="#fff"/>
        <ellipse id="타원_55" data-name="타원 55" cx="2.686" cy="2.686" rx="2.686" ry="2.686" transform="translate(10.542 5.795) rotate(-76.717)" fill="#fff"/>
        <ellipse id="타원_56" data-name="타원 56" cx="2.686" cy="2.686" rx="2.686" ry="2.686" transform="translate(0 5.795) rotate(-76.717)" fill="#fff"/>
      </g>
    </g>
    <g id="그룹_235" data-name="그룹 235" transform="translate(788.252 5057.584)">
      <rect id="사각형_309" data-name="사각형 309" width="90.758" height="21.668" rx="10.834" transform="translate(27.49 0.001)" fill="url(#linear-gradient)"/>
      <g id="그룹_239" data-name="그룹 239">
        <path id="패스_61" data-name="패스 61" d="M2264.381,917.782l-.613,1.085-1.417-.8v1.61h-1.225v-1.61l-1.417.8-.613-1.085,1.4-.8-1.4-.805.613-1.085,1.417.805v-1.61h1.225v1.61l1.417-.805.613,1.085-1.4.805Z" transform="translate(-2162.515 -906.143)" fill="#fff"/>
        <path id="패스_62" data-name="패스 62" d="M2173.609,917.782l-.613,1.085-1.417-.8v1.61h-1.225v-1.61l-1.417.8-.613-1.085,1.4-.8-1.4-.805.613-1.085,1.417.805v-1.61h1.225v1.61l1.417-.805.613,1.085-1.4.805Z" transform="translate(-2082.285 -906.143)" fill="#fff"/>
        <path id="패스_63" data-name="패스 63" d="M2082.838,917.782l-.612,1.085-1.417-.8v1.61h-1.225v-1.61l-1.417.8-.612-1.085,1.4-.8-1.4-.805.612-1.085,1.417.805v-1.61h1.225v1.61l1.417-.805.612,1.085-1.4.805Z" transform="translate(-2002.056 -906.143)" fill="#fff"/>
        <path id="패스_64" data-name="패스 64" d="M1992.066,917.782l-.612,1.085-1.417-.8v1.61h-1.225v-1.61l-1.417.8-.612-1.085,1.4-.8-1.4-.805.612-1.085,1.417.805v-1.61h1.225v1.61l1.417-.805.612,1.085-1.4.805Z" transform="translate(-1921.826 -906.143)" fill="#fff"/>
        <path id="패스_65" data-name="패스 65" d="M1901.3,917.782l-.612,1.085-1.417-.8v1.61h-1.225v-1.61l-1.417.8-.613-1.085,1.4-.8-1.4-.805.613-1.085,1.417.805v-1.61h1.225v1.61l1.417-.805.612,1.085-1.4.805Z" transform="translate(-1841.596 -906.143)" fill="#fff"/>
        <path id="패스_66" data-name="패스 66" d="M1810.524,917.782l-.612,1.085-1.417-.8v1.61h-1.225v-1.61l-1.417.8-.613-1.085,1.4-.8-1.4-.805.613-1.085,1.417.805v-1.61h1.225v1.61l1.417-.805.612,1.085-1.4.805Z" transform="translate(-1761.366 -906.143)" fill="#fff"/>
      </g>
      <path id="패스_67" data-name="패스 67" d="M1440.137,853.284h-8.274v-3.736a3.106,3.106,0,0,1,6.211,0v2.32h.2v.366h-.2v.624h2.245v-.624h-.2v-.366h.2v-2.32a5.351,5.351,0,0,0-5.351-5.351h0c-.1,0-.2,0-.292.008l-.035,0a5.35,5.35,0,0,0-5.024,5.34v3.749h0a2.341,2.341,0,0,0-2.158,2.334V860.1a5.76,5.76,0,0,0,5.76,5.761h3.5a5.761,5.761,0,0,0,5.761-5.761v-4.479A2.341,2.341,0,0,0,1440.137,853.284Zm-3.906,9.343h-2.525l.306-3.056a1.7,1.7,0,1,1,1.913,0Z" transform="translate(-1427.459 -844.197)" fill="#fff"/>
    </g>
    <rect id="area" width="158" height="132" transform="translate(763 4984)" fill="#fff" opacity="0"/>
  </g>
</svg>
